<?xml version="1.0" standalone="no"?>
<!DOCTYPE svg PUBLIC "-//W3C//DTD SVG 20010904//EN"
 "http://www.w3.org/TR/2001/REC-SVG-20010904/DTD/svg10.dtd">
<svg version="1.0" xmlns="http://www.w3.org/2000/svg"
 width="223.000000pt" height="226.000000pt" viewBox="0 0 223.000000 226.000000"
 preserveAspectRatio="xMidYMid meet">

<g transform="translate(0.000000,226.000000) scale(0.100000,-0.100000)"
fill="#000000" stroke="none">
<path d="M1048 2250 c-61 -11 -144 -56 -171 -94 -15 -22 -23 -49 -25 -96 l-4
-66 -65 -37 -64 -36 -57 14 c-73 19 -145 19 -213 -1 -117 -34 -168 -97 -169
-209 l-1 -60 -128 -72 -128 -72 -6 -173 c-4 -95 -7 -291 -7 -435 l0 -263 38
-24 c46 -30 994 -582 1044 -608 l37 -19 528 317 c290 174 536 324 545 332 17
14 18 48 18 453 l0 438 -115 61 -115 61 0 75 c0 108 -28 151 -125 196 -70 31
-219 32 -285 1 l-45 -20 -67 35 -68 36 0 52 c0 64 -13 100 -48 137 -37 39 -86
63 -157 76 -65 12 -79 12 -147 1z m183 -60 c56 -16 112 -70 112 -107 0 -78
-88 -133 -214 -133 -95 0 -159 21 -199 66 -37 43 -38 73 -4 114 61 71 180 95
305 60z m-280 -254 c92 -52 240 -53 341 -3 l47 23 5 -21 c9 -35 -13 -92 -44
-118 -42 -36 -95 -51 -175 -52 -132 0 -214 53 -223 145 -2 27 -2 50 0 50 3 0
25 -11 49 -24z m867 -41 c66 -20 122 -71 122 -112 0 -39 -31 -78 -83 -106 -57
-30 -213 -32 -267 -3 -60 31 -90 66 -90 103 0 97 172 161 318 118z m-1120 -29
c78 -39 102 -98 61 -150 -41 -52 -94 -71 -199 -71 -80 0 -103 4 -143 24 -120
59 -103 163 34 212 74 27 177 20 247 -15z m155 7 c10 -50 50 -96 111 -128 53
-27 68 -30 155 -30 79 0 105 4 146 23 65 30 113 77 121 119 7 37 13 39 55 18
24 -13 28 -19 19 -35 -17 -31 -13 -276 5 -310 43 -83 181 -131 314 -109 78 12
159 54 180 92 35 63 32 62 89 31 28 -16 52 -31 52 -34 0 -3 -22 -17 -48 -31
-26 -15 -245 -141 -488 -281 l-441 -254 -486 271 c-268 149 -489 274 -492 277
-4 3 26 24 65 46 l70 41 16 -37 c30 -74 88 -113 193 -132 141 -25 294 36 330
133 6 16 11 79 11 141 0 90 -4 119 -19 149 -19 37 -19 37 2 52 29 21 34 19 40
-12z m1087 -252 c0 -97 -78 -150 -221 -151 -141 0 -219 53 -219 150 0 23 3 40
8 38 82 -42 114 -52 188 -56 90 -5 175 14 215 48 13 10 25 19 27 20 1 0 2 -22
2 -49z m-1381 -26 c96 0 111 3 159 28 30 15 56 27 58 27 10 0 2 -74 -11 -100
-44 -86 -214 -121 -334 -70 -63 28 -90 63 -98 130 l-6 50 63 -33 c60 -30 69
-32 169 -32z m1591 -523 l0 -368 -472 -284 c-260 -156 -483 -290 -495 -298
l-23 -14 0 383 0 384 488 282 c268 155 490 282 495 282 4 1 7 -165 7 -367z
m-1562 82 c263 -147 483 -271 490 -276 9 -8 12 -97 12 -383 0 -204 -2 -374 -5
-377 -3 -3 -231 126 -506 286 l-501 291 6 119 c3 66 6 229 6 363 0 168 3 243
11 243 6 0 225 -120 487 -266z"/>
<path d="M1060 1670 c-97 -17 -169 -63 -196 -127 -22 -52 -18 -237 6 -290 68
-151 402 -165 498 -20 25 37 27 50 30 155 4 137 1 152 -44 202 -58 64 -187 99
-294 80z m195 -74 c59 -28 83 -51 91 -93 5 -24 0 -37 -26 -66 -79 -90 -279
-97 -377 -12 -99 86 2 195 182 195 63 0 91 -5 130 -24z m-304 -240 c68 -38
157 -51 238 -37 37 7 86 23 110 37 24 13 45 24 48 24 3 0 3 -23 1 -50 -6 -58
-30 -90 -93 -123 -32 -18 -57 -22 -130 -22 -73 0 -98 4 -130 22 -62 33 -85 63
-92 121 -3 29 -3 52 -1 52 3 0 25 -11 49 -24z"/>
</g>
</svg>
